<svg width="22" height="25" viewBox="0 0 22 25" fill="none" xmlns="http://www.w3.org/2000/svg">
<path d="M12.5714 0H15.6829C15.9091 1.11719 16.5314 2.52656 17.6236 3.925C18.6921 5.29531 20.1096 6.25 22 6.25V9.375C19.2453 9.375 17.1757 8.10312 15.7143 6.51719V17.1875C15.7143 18.7327 15.2535 20.2431 14.3901 21.5279C13.5268 22.8126 12.2996 23.814 10.8639 24.4053C9.42824 24.9966 7.84843 25.1513 6.32429 24.8499C4.80016 24.5484 3.40015 23.8044 2.30131 22.7118C1.20247 21.6192 0.454146 20.2271 0.150976 18.7116C-0.152193 17.1962 0.00340437 15.6253 0.598093 14.1978C1.19278 12.7702 2.19985 11.5501 3.49195 10.6916C4.78405 9.83319 6.30315 9.375 7.85715 9.375V12.5C6.92475 12.5 6.01329 12.7749 5.23803 13.29C4.46277 13.8051 3.85853 14.5371 3.50171 15.3937C3.1449 16.2502 3.05154 17.1927 3.23344 18.102C3.41535 19.0113 3.86434 19.8465 4.52364 20.5021C5.18295 21.1576 6.02295 21.6041 6.93743 21.7849C7.85192 21.9658 8.7998 21.873 9.66122 21.5182C10.5226 21.1634 11.2589 20.5626 11.7769 19.7917C12.2949 19.0209 12.5714 18.1146 12.5714 17.1875V0Z" fill="white"/>
</svg>
